<svg width="30" height="30" viewBox="0 0 30 30" fill="none" xmlns="http://www.w3.org/2000/svg">
<rect width="30" height="30" rx="15" fill="white"/>
<g clip-path="url(#clip0_17_675)">
<path d="M18.6689 7H11.331C8.94287 7 7 8.94287 7 11.331V18.669C7 21.0571 8.94287 23 11.331 23H18.669C21.0571 23 23 21.0571 23 18.669V11.331C23 8.94287 21.0571 7 18.6689 7V7ZM15 19.3749C12.5876 19.3749 10.6251 17.4123 10.6251 15C10.6251 12.5876 12.5876 10.6251 15 10.6251C17.4123 10.6251 19.3749 12.5876 19.3749 15C19.3749 17.4123 17.4123 19.3749 15 19.3749ZM19.4795 11.6569C18.7666 11.6569 18.1867 11.077 18.1867 10.3641C18.1867 9.65124 18.7666 9.07129 19.4795 9.07129C20.1924 9.07129 20.7723 9.65124 20.7723 10.3641C20.7723 11.077 20.1924 11.6569 19.4795 11.6569Z" fill="#E44590"/>
<path d="M15.0008 11.5632C13.1057 11.5632 11.5638 13.105 11.5638 15.0001C11.5638 16.8952 13.1057 18.4371 15.0008 18.4371C16.8959 18.4371 18.4377 16.8952 18.4377 15.0001C18.4377 13.105 16.8959 11.5632 15.0008 11.5632Z" fill="#E44590"/>
<path d="M19.4792 10.0094C19.2837 10.0094 19.1245 10.1686 19.1245 10.3641C19.1245 10.5597 19.2837 10.7189 19.4792 10.7189C19.6749 10.7189 19.8341 10.5598 19.8341 10.3641C19.8341 10.1685 19.6749 10.0094 19.4792 10.0094Z" fill="#E44590"/>
</g>
<defs>
<clipPath id="clip0_17_675">
<rect width="16" height="16" fill="white" transform="translate(7 7)"/>
</clipPath>
</defs>
</svg>
